<svg width="472" height="473" viewBox="0 0 472 473" fill="none" xmlns="http://www.w3.org/2000/svg">
<path d="M150.5 74L122.977 64.9626C120.579 64.1752 120.166 60.9558 122.318 59.6381C129.053 55.516 135.327 52.3804 148.5 47.5L167.5 63L150.5 74Z" stroke="#fff" stroke-width="13"/>
<circle cx="235.5" cy="236.5" r="210" stroke="#fff" stroke-width="13" stroke-linecap="square"/>
<path d="M220.249 294.5C220.194 293.837 220.136 293.136 220.075 292.403C219.692 287.823 219.139 281.509 218.455 273.877C217.087 258.609 215.194 238.027 213.09 215.409C209.157 173.11 204.488 123.668 201.147 88.5H269.909L251.974 294.5H220.249Z" fill="#fff" stroke="#fff" stroke-width="13" stroke-linecap="round"/>
<circle cx="236" cy="356" r="30.5" fill="#fff" stroke="#fff" stroke-width="13" stroke-linecap="square"/>
<path d="M444.528 231.687L444.645 231.618C444.919 237.758 444.884 243.891 444.519 249.988C437.35 323.032 404.8 367.261 365.889 398.482L359.082 379.494L378.755 342.021L379.366 340.858L379.477 339.549L381.977 310.049L382.47 304.231L376.738 303.119L346.312 297.215L325.619 257.591L339.995 220.125L387.477 203.291L394.649 213.69L396.693 216.655L400.291 216.493L430.591 215.137L444.528 231.687ZM358.082 68.6648C365.931 73.9122 373.637 80.3266 381.021 87.7133L379.012 92.4717L373.122 106.422L367.256 100.975L358.082 68.6648ZM403.817 130.531L406.57 119.174C410.894 125.675 414.963 132.52 418.717 139.646C424.243 150.131 429.059 161.167 432.999 172.538L427.844 168.758L426.128 167.5H424H413H406.5V174V178.5V180.983L386.907 171.186L383.472 169.469L380.31 171.649L366.216 181.369L353.323 187.631L342.577 176.884L353.234 149.011L377.206 135.5H397.5H402.613L403.817 130.531Z" stroke="#fff" stroke-width="13" stroke-linecap="round"/>
<mask id="path-6-inside-1" fill="white">
<path d="M350.5 130.5C347.667 134.167 337.5 141 337.5 141L336 120.5L342 106L350.5 130.5Z"/>
</mask>
<path d="M337.5 141L324.535 141.949L326.169 164.28L344.752 151.789L337.5 141ZM350.5 130.5L360.787 138.449L365.087 132.884L362.782 126.239L350.5 130.5ZM342 106L354.282 101.739L343.069 69.418L329.988 101.029L342 106ZM336 120.5L323.988 115.529L322.81 118.376L323.035 121.449L336 120.5ZM337.5 141C344.752 151.789 344.753 151.789 344.753 151.788C344.754 151.788 344.754 151.788 344.755 151.787C344.756 151.787 344.757 151.786 344.759 151.785C344.762 151.783 344.765 151.78 344.77 151.778C344.778 151.772 344.789 151.765 344.802 151.756C344.828 151.738 344.864 151.714 344.909 151.683C344.999 151.622 345.126 151.536 345.284 151.428C345.6 151.211 346.046 150.904 346.586 150.526C347.661 149.774 349.137 148.722 350.726 147.534C353.331 145.585 358.097 141.93 360.787 138.449L340.213 122.551C340.361 122.36 340.046 122.762 338.823 123.809C337.766 124.713 336.475 125.724 335.149 126.716C333.842 127.694 332.6 128.58 331.68 129.224C331.222 129.544 330.852 129.799 330.601 129.971C330.476 130.056 330.381 130.121 330.321 130.162C330.291 130.182 330.269 130.197 330.257 130.205C330.251 130.209 330.247 130.212 330.245 130.213C330.245 130.213 330.244 130.213 330.245 130.213C330.245 130.213 330.246 130.212 330.246 130.212C330.246 130.212 330.247 130.212 330.247 130.211C330.248 130.211 330.248 130.211 337.5 141ZM362.782 126.239L354.282 101.739L329.718 110.261L338.218 134.761L362.782 126.239ZM329.988 101.029L323.988 115.529L348.012 125.471L354.012 110.971L329.988 101.029ZM323.035 121.449L324.535 141.949L350.465 140.051L348.965 119.551L323.035 121.449Z" fill="#fff" mask="url(#path-6-inside-1)"/>
<path d="M120.235 125.339L140.484 107.178L146.695 143.043L86.522 185.175L85.1582 186.13L84.4214 187.623L77.5746 201.497L74.8571 189.107L73.3038 182.025L66.4328 184.34L30.429 196.47C39.7331 143.603 74.2524 100.326 112.002 73.5874L101.387 104.382L100.402 107.239L101.952 109.833L110.315 123.833L114.361 130.607L120.235 125.339ZM96.3305 325.02L97.246 327.82L99.9558 328.978L119.423 337.292V375V377.159L120.715 378.889L156.954 427.411C129.995 416.711 102.132 397.038 79.028 371.4C50.5773 339.83 29.9288 299.866 26.8545 257.726L56.604 260.732L84.5492 288.98L96.3305 325.02Z" stroke="#fff" stroke-width="13" stroke-linecap="round"/>
<path d="M227.5 7C171 9.5 121.5 29 76 70.5M7 203.5C11.1375 180.775 15.5058 165.861 25 142.5M84 410.5C143 462.5 223 478.5 305 456.5M385.5 62.5C415.161 84.4056 460.969 150.172 464 213M465 245.5C463.478 272.925 459.735 287.594 451.5 316" stroke="#fff" stroke-width="13" stroke-linecap="round"/>
</svg>
