<svg width="157" height="260" viewBox="0 0 157 260" fill="none" xmlns="http://www.w3.org/2000/svg">
<g filter="url(#filter0_ii)">
<path d="M25.2058 249.866L8 52H148L132.713 249.771C132.311 254.979 127.967 259 122.743 259H35.1682C29.9811 259 25.6551 255.034 25.2058 249.866Z" fill="#176D1E"/>
</g>
<path d="M8 52V51.5H7.45463L7.50188 52.0433L8 52ZM25.2058 249.866L24.7076 249.91L25.2058 249.866ZM132.713 249.771L132.215 249.732L132.713 249.771ZM148 52L148.499 52.0385L148.54 51.5H148V52ZM7.50188 52.0433L24.7076 249.91L25.7039 249.823L8.49812 51.9567L7.50188 52.0433ZM35.1682 259.5H122.743V258.5H35.1682V259.5ZM133.212 249.809L148.499 52.0385L147.501 51.9615L132.215 249.732L133.212 249.809ZM148 51.5H8V52.5H148V51.5ZM122.743 259.5C128.228 259.5 132.789 255.278 133.212 249.809L132.215 249.732C131.832 254.68 127.706 258.5 122.743 258.5V259.5ZM24.7076 249.91C25.1795 255.336 29.7217 259.5 35.1682 259.5V258.5C30.2404 258.5 26.1308 254.732 25.7039 249.823L24.7076 249.91Z" fill="black"/>
<path d="M156.5 227V223.5C156.5 222.395 155.605 221.5 154.5 221.5V229C155.605 229 156.5 228.105 156.5 227Z" fill="#848484" stroke="black"/>
<path d="M1 227V223.5C1 222.395 1.89543 221.5 3 221.5V229C1.89543 229 1 228.105 1 227Z" fill="#848484" stroke="black"/>
<g filter="url(#filter1_i)">
<path d="M141.5 217.5H135.5L134 234H141.5V217.5Z" fill="#848484"/>
</g>
<path d="M141.5 217.5H135.5L134 234H141.5V217.5Z" stroke="black"/>
<g filter="url(#filter2_i)">
<path d="M16 217.5H22L23.5 234H16V217.5Z" fill="#848484"/>
</g>
<path d="M16 217.5H22L23.5 234H16V217.5Z" stroke="black"/>
<g filter="url(#filter3_ii)">
<path d="M141.5 249V202.5C141.5 200.291 143.291 198.5 145.5 198.5H150.5C152.709 198.5 154.5 200.291 154.5 202.5V249C154.5 251.209 152.709 253 150.5 253H145.5C143.291 253 141.5 251.209 141.5 249Z" fill="#303030"/>
</g>
<path d="M141.5 249V202.5C141.5 200.291 143.291 198.5 145.5 198.5H150.5C152.709 198.5 154.5 200.291 154.5 202.5V249C154.5 251.209 152.709 253 150.5 253H145.5C143.291 253 141.5 251.209 141.5 249Z" stroke="black"/>
<g filter="url(#filter4_ii)">
<path d="M16 249V202.5C16 200.291 14.2091 198.5 12 198.5H7C4.79086 198.5 3 200.291 3 202.5V249C3 251.209 4.79086 253 7 253H12C14.2091 253 16 251.209 16 249Z" fill="#303030"/>
</g>
<path d="M16 249V202.5C16 200.291 14.2091 198.5 12 198.5H7C4.79086 198.5 3 200.291 3 202.5V249C3 251.209 4.79086 253 7 253H12C14.2091 253 16 251.209 16 249Z" stroke="black"/>
<g filter="url(#filter5_dii)">
<path d="M66 90.5V52H72V90.5H66Z" fill="#176D1E"/>
<path d="M66 90.5V52H72V90.5H66Z" stroke="black" stroke-width="0.5"/>
</g>
<g filter="url(#filter6_dii)">
<path d="M85 90.5V52H91V90.5H85Z" fill="#176D1E"/>
<path d="M85 90.5V52H91V90.5H85Z" stroke="black" stroke-width="0.5"/>
</g>
<path d="M66 90.5V52H72V90.5H66Z" stroke="black" stroke-width="0.5"/>
<path d="M85 90.5V52H91V90.5H85Z" stroke="black" stroke-width="0.5"/>
<g filter="url(#filter7_i)">
<path d="M6 38C3.23858 38 1 40.2386 1 43V46.5C1 49.2614 3.23858 51.5 6 51.5H150C152.761 51.5 155 49.2614 155 46.5V43C155 40.2386 152.761 38 150 38H6Z" fill="#176D1E"/>
</g>
<path d="M6 38C3.23858 38 1 40.2386 1 43V46.5C1 49.2614 3.23858 51.5 6 51.5H150C152.761 51.5 155 49.2614 155 46.5V43C155 40.2386 152.761 38 150 38H6Z" stroke="black"/>
<g filter="url(#filter8_i)">
<path d="M1 33V26.5C1 23.7386 3.23858 21.5 6 21.5H150C152.761 21.5 155 23.7386 155 26.5V33C155 35.7614 152.761 38 150 38H6C3.23858 38 1 35.7614 1 33Z" fill="#176D1E"/>
</g>
<path d="M1 33V26.5C1 23.7386 3.23858 21.5 6 21.5H150C152.761 21.5 155 23.7386 155 26.5V33C155 35.7614 152.761 38 150 38H6C3.23858 38 1 35.7614 1 33Z" stroke="black"/>
<path d="M18 18.5V21H137V18.5C137 15.7386 134.761 13.5 132 13.5H23C20.2386 13.5 18 15.7386 18 18.5Z" fill="#176D1E" stroke="black"/>
<g filter="url(#filter9_i)">
<path d="M32.5 10V13H122V10C122 8.34315 120.657 7 119 7H113V6.5C113 4.84315 111.657 3.5 110 3.5H45.5C43.8431 3.5 42.5 4.84315 42.5 6.5V7H35.5C33.8431 7 32.5 8.34315 32.5 10Z" fill="#176D1E"/>
</g>
<path d="M32.5 10V13H122V10C122 8.34315 120.657 7 119 7H113V6.5C113 4.84315 111.657 3.5 110 3.5H45.5C43.8431 3.5 42.5 4.84315 42.5 6.5V7H35.5C33.8431 7 32.5 8.34315 32.5 10Z" stroke="black"/>
<g filter="url(#filter10_i)">
<path d="M21 6V13.5H24V8C24 6.34315 25.3431 5 27 5H32.5C34.1569 5 35.5 6.34315 35.5 8V13.5H39.5V6C39.5 3.23858 37.2614 1 34.5 1H26C23.2386 1 21 3.23858 21 6Z" fill="#ADADAD"/>
</g>
<path d="M21 6V13.5H24V8C24 6.34315 25.3431 5 27 5H32.5C34.1569 5 35.5 6.34315 35.5 8V13.5H39.5V6C39.5 3.23858 37.2614 1 34.5 1H26C23.2386 1 21 3.23858 21 6Z" stroke="black"/>
<g filter="url(#filter11_i)">
<path d="M116 6V13.5H119V8C119 6.34315 120.343 5 122 5H127.5C129.157 5 130.5 6.34315 130.5 8V13.5H134.5V6C134.5 3.23858 132.261 1 129.5 1H121C118.239 1 116 3.23858 116 6Z" fill="#ADADAD"/>
</g>
<path d="M116 6V13.5H119V8C119 6.34315 120.343 5 122 5H127.5C129.157 5 130.5 6.34315 130.5 8V13.5H134.5V6C134.5 3.23858 132.261 1 129.5 1H121C118.239 1 116 3.23858 116 6Z" stroke="black"/>
<g style="mix-blend-mode:soft-light" filter="url(#filter12_ii)">
<path d="M147.5 52.5H121.5L114.5 258.5H122.419C123.466 258.5 124.506 258.331 125.5 258C126.494 257.669 127.427 257.18 128.265 256.551L128.476 256.393C128.825 256.131 129.155 255.845 129.463 255.537L129.528 255.472C130.496 254.504 131.225 253.324 131.658 252.025C131.885 251.344 132.028 250.638 132.084 249.923L147.5 52.5Z" fill="#88C68D"/>
</g>
<g style="mix-blend-mode:soft-light">
<g filter="url(#filter13_i)">
<path d="M1 33V26.5C1 23.7386 3.23858 21.5 6 21.5H150C152.761 21.5 155 23.7386 155 26.5V33C155 35.7614 152.761 38 150 38H6C3.23858 38 1 35.7614 1 33Z" fill="#88C68D"/>
</g>
<path d="M1 33V26.5C1 23.7386 3.23858 21.5 6 21.5H150C152.761 21.5 155 23.7386 155 26.5V33C155 35.7614 152.761 38 150 38H6C3.23858 38 1 35.7614 1 33Z" stroke="black"/>
</g>
<g style="mix-blend-mode:soft-light" filter="url(#filter14_i)">
<path d="M18 18.5V21H137V18.5C137 15.7386 134.761 13.5 132 13.5H23C20.2386 13.5 18 15.7386 18 18.5Z" fill="#88C68D"/>
</g>
<g style="mix-blend-mode:soft-light" filter="url(#filter15_i)">
<path d="M113.5 7.5H42.5L42.632 6.57574C42.8432 5.09779 44.1089 4 45.6019 4H110.237C111.577 4 112.754 4.88793 113.122 6.17584L113.5 7.5Z" fill="#88C68D"/>
</g>
<path d="M67.8889 104.025C64.6072 104.902 62.5662 109.581 59 116.381L71 123C75.1427 111.071 80.5815 104.474 86.9316 104.025L67.8889 104.025Z" fill="#188F21"/>
<path d="M78.5556 111.526L83.4444 120.352L80.3333 122.117L93.6667 123L99 111.526L95.4444 113.292L89.6667 105.348C85.6667 104.379 82.045 107.022 78.5556 111.526Z" fill="#188F21"/>
<path d="M86.9316 104.025C80.5815 104.474 75.1427 111.071 71 123L59 116.381C62.5662 109.581 64.6072 104.902 67.8889 104.025L86.9316 104.025ZM86.9316 104.025C87.394 103.992 87.8613 103.992 88.3333 104.025H86.9316ZM78.5556 111.526L83.4444 120.352L80.3333 122.117L93.6667 123L99 111.526L95.4444 113.292L89.6667 105.348C85.6667 104.379 82.045 107.022 78.5556 111.526Z" stroke="black" stroke-width="0.5"/>
<path d="M107.448 134.899C108.244 131.597 105.108 127.569 100.838 121.188L89.2907 128.569C97.792 137.906 100.991 145.836 98.3523 151.629L107.448 134.899Z" fill="#188F21"/>
<path d="M95.7621 140.687L85.673 140.767L85.6082 137.19L78.4643 148.483L85.9971 158.649L86.1446 154.682L95.8828 153.4C98.6448 150.348 98.0532 145.904 95.7621 140.687Z" fill="#188F21"/>
<path d="M98.3523 151.629C100.991 145.836 97.792 137.906 89.2907 128.569L100.838 121.188C105.108 127.569 108.244 131.597 107.448 134.899L98.3523 151.629ZM98.3523 151.629C98.1601 152.051 97.937 152.462 97.6828 152.861L98.3523 151.629ZM95.7621 140.687L85.673 140.767L85.6082 137.19L78.4643 148.483L85.9971 158.649L86.1446 154.682L95.8828 153.4C98.6448 150.348 98.0532 145.904 95.7621 140.687Z" stroke="black" stroke-width="0.5"/>
<path d="M60.4726 140.443L65.8348 131.897L68.884 133.767L63.2104 121.669L50.5884 122.547L53.8526 124.806L49.6927 133.704C50.7783 137.674 54.8422 139.567 60.4726 140.443Z" fill="#188F21"/>
<path d="M59.0627 153.407C61.4177 155.856 66.5001 155.38 74.1762 155.215L74.1689 141.51C61.7242 143.651 53.3195 142.08 49.8562 136.738L59.0627 153.407Z" fill="#188F21"/>
<path d="M49.8562 136.738C53.3195 142.08 61.7242 143.651 74.1689 141.51L74.1762 155.215C66.5001 155.38 61.4177 155.856 59.0627 153.407L49.8562 136.738ZM49.8562 136.738C49.604 136.349 49.3779 135.94 49.1785 135.511L49.8562 136.738ZM60.4726 140.443L65.8348 131.897L68.884 133.767L63.2104 121.669L50.5884 122.547L53.8526 124.806L49.6927 133.704C50.7783 137.674 54.8422 139.567 60.4726 140.443Z" stroke="black" stroke-width="0.5"/>
<g style="mix-blend-mode:soft-light" filter="url(#filter16_ii)">
<path d="M16 204H3V212H16V204Z" fill="#EDF8ED"/>
</g>
<g style="mix-blend-mode:soft-light" filter="url(#filter17_ii)">
<path d="M154 204H142V212H154V204Z" fill="#EDF8ED"/>
</g>
<defs>
<filter id="filter0_ii" x="7.45464" y="44.5" width="141.086" height="222" filterUnits="userSpaceOnUse" color-interpolation-filters="sRGB">
<feFlood flood-opacity="0" result="BackgroundImageFix"/>
<feBlend mode="normal" in="SourceGraphic" in2="BackgroundImageFix" result="shape"/>
<feColorMatrix in="SourceAlpha" type="matrix" values="0 0 0 0 0 0 0 0 0 0 0 0 0 0 0 0 0 0 127 0" result="hardAlpha"/>
<feOffset dy="10"/>
<feGaussianBlur stdDeviation="3.5"/>
<feComposite in2="hardAlpha" operator="arithmetic" k2="-1" k3="1"/>
<feColorMatrix type="matrix" values="0 0 0 0 0 0 0 0 0 0 0 0 0 0 0 0 0 0 0.25 0"/>
<feBlend mode="normal" in2="shape" result="effect1_innerShadow"/>
<feColorMatrix in="SourceAlpha" type="matrix" values="0 0 0 0 0 0 0 0 0 0 0 0 0 0 0 0 0 0 127 0" result="hardAlpha"/>
<feOffset dy="-7"/>
<feGaussianBlur stdDeviation="3.5"/>
<feComposite in2="hardAlpha" operator="arithmetic" k2="-1" k3="1"/>
<feColorMatrix type="matrix" values="0 0 0 0 0 0 0 0 0 0 0 0 0 0 0 0 0 0 0.25 0"/>
<feBlend mode="normal" in2="effect1_innerShadow" result="effect2_innerShadow"/>
</filter>
<filter id="filter1_i" x="133.452" y="213" width="8.54752" height="21.5" filterUnits="userSpaceOnUse" color-interpolation-filters="sRGB">
<feFlood flood-opacity="0" result="BackgroundImageFix"/>
<feBlend mode="normal" in="SourceGraphic" in2="BackgroundImageFix" result="shape"/>
<feColorMatrix in="SourceAlpha" type="matrix" values="0 0 0 0 0 0 0 0 0 0 0 0 0 0 0 0 0 0 127 0" result="hardAlpha"/>
<feOffset dy="-4"/>
<feGaussianBlur stdDeviation="2"/>
<feComposite in2="hardAlpha" operator="arithmetic" k2="-1" k3="1"/>
<feColorMatrix type="matrix" values="0 0 0 0 0 0 0 0 0 0 0 0 0 0 0 0 0 0 0.5 0"/>
<feBlend mode="normal" in2="shape" result="effect1_innerShadow"/>
</filter>
<filter id="filter2_i" x="15.5" y="213" width="8.54752" height="21.5" filterUnits="userSpaceOnUse" color-interpolation-filters="sRGB">
<feFlood flood-opacity="0" result="BackgroundImageFix"/>
<feBlend mode="normal" in="SourceGraphic" in2="BackgroundImageFix" result="shape"/>
<feColorMatrix in="SourceAlpha" type="matrix" values="0 0 0 0 0 0 0 0 0 0 0 0 0 0 0 0 0 0 127 0" result="hardAlpha"/>
<feOffset dy="-4"/>
<feGaussianBlur stdDeviation="2"/>
<feComposite in2="hardAlpha" operator="arithmetic" k2="-1" k3="1"/>
<feColorMatrix type="matrix" values="0 0 0 0 0 0 0 0 0 0 0 0 0 0 0 0 0 0 0.5 0"/>
<feBlend mode="normal" in2="shape" result="effect1_innerShadow"/>
</filter>
<filter id="filter3_ii" x="141" y="194" width="14" height="63.5" filterUnits="userSpaceOnUse" color-interpolation-filters="sRGB">
<feFlood flood-opacity="0" result="BackgroundImageFix"/>
<feBlend mode="normal" in="SourceGraphic" in2="BackgroundImageFix" result="shape"/>
<feColorMatrix in="SourceAlpha" type="matrix" values="0 0 0 0 0 0 0 0 0 0 0 0 0 0 0 0 0 0 127 0" result="hardAlpha"/>
<feOffset dy="4"/>
<feGaussianBlur stdDeviation="2"/>
<feComposite in2="hardAlpha" operator="arithmetic" k2="-1" k3="1"/>
<feColorMatrix type="matrix" values="0 0 0 0 0 0 0 0 0 0 0 0 0 0 0 0 0 0 0.7 0"/>
<feBlend mode="normal" in2="shape" result="effect1_innerShadow"/>
<feColorMatrix in="SourceAlpha" type="matrix" values="0 0 0 0 0 0 0 0 0 0 0 0 0 0 0 0 0 0 127 0" result="hardAlpha"/>
<feOffset dy="-4"/>
<feGaussianBlur stdDeviation="2"/>
<feComposite in2="hardAlpha" operator="arithmetic" k2="-1" k3="1"/>
<feColorMatrix type="matrix" values="0 0 0 0 0 0 0 0 0 0 0 0 0 0 0 0 0 0 0.7 0"/>
<feBlend mode="normal" in2="effect1_innerShadow" result="effect2_innerShadow"/>
</filter>
<filter id="filter4_ii" x="2.5" y="194" width="14" height="63.5" filterUnits="userSpaceOnUse" color-interpolation-filters="sRGB">
<feFlood flood-opacity="0" result="BackgroundImageFix"/>
<feBlend mode="normal" in="SourceGraphic" in2="BackgroundImageFix" result="shape"/>
<feColorMatrix in="SourceAlpha" type="matrix" values="0 0 0 0 0 0 0 0 0 0 0 0 0 0 0 0 0 0 127 0" result="hardAlpha"/>
<feOffset dy="4"/>
<feGaussianBlur stdDeviation="2"/>
<feComposite in2="hardAlpha" operator="arithmetic" k2="-1" k3="1"/>
<feColorMatrix type="matrix" values="0 0 0 0 0 0 0 0 0 0 0 0 0 0 0 0 0 0 0.7 0"/>
<feBlend mode="normal" in2="shape" result="effect1_innerShadow"/>
<feColorMatrix in="SourceAlpha" type="matrix" values="0 0 0 0 0 0 0 0 0 0 0 0 0 0 0 0 0 0 127 0" result="hardAlpha"/>
<feOffset dy="-4"/>
<feGaussianBlur stdDeviation="2"/>
<feComposite in2="hardAlpha" operator="arithmetic" k2="-1" k3="1"/>
<feColorMatrix type="matrix" values="0 0 0 0 0 0 0 0 0 0 0 0 0 0 0 0 0 0 0.7 0"/>
<feBlend mode="normal" in2="effect1_innerShadow" result="effect2_innerShadow"/>
</filter>
<filter id="filter5_dii" x="56.75" y="44.75" width="18.5" height="52" filterUnits="userSpaceOnUse" color-interpolation-filters="sRGB">
<feFlood flood-opacity="0" result="BackgroundImageFix"/>
<feColorMatrix in="SourceAlpha" type="matrix" values="0 0 0 0 0 0 0 0 0 0 0 0 0 0 0 0 0 0 127 0" result="hardAlpha"/>
<feOffset dx="-3"/>
<feGaussianBlur stdDeviation="3"/>
<feComposite in2="hardAlpha" operator="out"/>
<feColorMatrix type="matrix" values="0 0 0 0 0 0 0 0 0 0 0 0 0 0 0 0 0 0 0.25 0"/>
<feBlend mode="normal" in2="BackgroundImageFix" result="effect1_dropShadow"/>
<feBlend mode="normal" in="SourceGraphic" in2="effect1_dropShadow" result="shape"/>
<feColorMatrix in="SourceAlpha" type="matrix" values="0 0 0 0 0 0 0 0 0 0 0 0 0 0 0 0 0 0 127 0" result="hardAlpha"/>
<feOffset dy="-10"/>
<feGaussianBlur stdDeviation="3.5"/>
<feComposite in2="hardAlpha" operator="arithmetic" k2="-1" k3="1"/>
<feColorMatrix type="matrix" values="0 0 0 0 0 0 0 0 0 0 0 0 0 0 0 0 0 0 0.25 0"/>
<feBlend mode="normal" in2="shape" result="effect2_innerShadow"/>
<feColorMatrix in="SourceAlpha" type="matrix" values="0 0 0 0 0 0 0 0 0 0 0 0 0 0 0 0 0 0 127 0" result="hardAlpha"/>
<feOffset dy="6"/>
<feGaussianBlur stdDeviation="2"/>
<feComposite in2="hardAlpha" operator="arithmetic" k2="-1" k3="1"/>
<feColorMatrix type="matrix" values="0 0 0 0 0.443137 0 0 0 0 1 0 0 0 0 0.486275 0 0 0 0.25 0"/>
<feBlend mode="normal" in2="effect2_innerShadow" result="effect3_innerShadow"/>
</filter>
<filter id="filter6_dii" x="75.75" y="44.75" width="18.5" height="52" filterUnits="userSpaceOnUse" color-interpolation-filters="sRGB">
<feFlood flood-opacity="0" result="BackgroundImageFix"/>
<feColorMatrix in="SourceAlpha" type="matrix" values="0 0 0 0 0 0 0 0 0 0 0 0 0 0 0 0 0 0 127 0" result="hardAlpha"/>
<feOffset dx="-3"/>
<feGaussianBlur stdDeviation="3"/>
<feComposite in2="hardAlpha" operator="out"/>
<feColorMatrix type="matrix" values="0 0 0 0 0 0 0 0 0 0 0 0 0 0 0 0 0 0 0.25 0"/>
<feBlend mode="normal" in2="BackgroundImageFix" result="effect1_dropShadow"/>
<feBlend mode="normal" in="SourceGraphic" in2="effect1_dropShadow" result="shape"/>
<feColorMatrix in="SourceAlpha" type="matrix" values="0 0 0 0 0 0 0 0 0 0 0 0 0 0 0 0 0 0 127 0" result="hardAlpha"/>
<feOffset dy="-10"/>
<feGaussianBlur stdDeviation="3.5"/>
<feComposite in2="hardAlpha" operator="arithmetic" k2="-1" k3="1"/>
<feColorMatrix type="matrix" values="0 0 0 0 0 0 0 0 0 0 0 0 0 0 0 0 0 0 0.25 0"/>
<feBlend mode="normal" in2="shape" result="effect2_innerShadow"/>
<feColorMatrix in="SourceAlpha" type="matrix" values="0 0 0 0 0 0 0 0 0 0 0 0 0 0 0 0 0 0 127 0" result="hardAlpha"/>
<feOffset dy="6"/>
<feGaussianBlur stdDeviation="2"/>
<feComposite in2="hardAlpha" operator="arithmetic" k2="-1" k3="1"/>
<feColorMatrix type="matrix" values="0 0 0 0 0.443137 0 0 0 0 1 0 0 0 0 0.486275 0 0 0 0.25 0"/>
<feBlend mode="normal" in2="effect2_innerShadow" result="effect3_innerShadow"/>
</filter>
<filter id="filter7_i" x="0.5" y="37.5" width="155" height="18.5" filterUnits="userSpaceOnUse" color-interpolation-filters="sRGB">
<feFlood flood-opacity="0" result="BackgroundImageFix"/>
<feBlend mode="normal" in="SourceGraphic" in2="BackgroundImageFix" result="shape"/>
<feColorMatrix in="SourceAlpha" type="matrix" values="0 0 0 0 0 0 0 0 0 0 0 0 0 0 0 0 0 0 127 0" result="hardAlpha"/>
<feOffset dy="4"/>
<feGaussianBlur stdDeviation="2"/>
<feComposite in2="hardAlpha" operator="arithmetic" k2="-1" k3="1"/>
<feColorMatrix type="matrix" values="0 0 0 0 0 0 0 0 0 0 0 0 0 0 0 0 0 0 0.5 0"/>
<feBlend mode="normal" in2="shape" result="effect1_innerShadow"/>
</filter>
<filter id="filter8_i" x="0.5" y="17" width="155" height="21.5" filterUnits="userSpaceOnUse" color-interpolation-filters="sRGB">
<feFlood flood-opacity="0" result="BackgroundImageFix"/>
<feBlend mode="normal" in="SourceGraphic" in2="BackgroundImageFix" result="shape"/>
<feColorMatrix in="SourceAlpha" type="matrix" values="0 0 0 0 0 0 0 0 0 0 0 0 0 0 0 0 0 0 127 0" result="hardAlpha"/>
<feOffset dy="-4"/>
<feGaussianBlur stdDeviation="2"/>
<feComposite in2="hardAlpha" operator="arithmetic" k2="-1" k3="1"/>
<feColorMatrix type="matrix" values="0 0 0 0 0 0 0 0 0 0 0 0 0 0 0 0 0 0 0.5 0"/>
<feBlend mode="normal" in2="shape" result="effect1_innerShadow"/>
</filter>
<filter id="filter9_i" x="32" y="1" width="90.5" height="12.5" filterUnits="userSpaceOnUse" color-interpolation-filters="sRGB">
<feFlood flood-opacity="0" result="BackgroundImageFix"/>
<feBlend mode="normal" in="SourceGraphic" in2="BackgroundImageFix" result="shape"/>
<feColorMatrix in="SourceAlpha" type="matrix" values="0 0 0 0 0 0 0 0 0 0 0 0 0 0 0 0 0 0 127 0" result="hardAlpha"/>
<feOffset dy="-3"/>
<feGaussianBlur stdDeviation="1"/>
<feComposite in2="hardAlpha" operator="arithmetic" k2="-1" k3="1"/>
<feColorMatrix type="matrix" values="0 0 0 0 0 0 0 0 0 0 0 0 0 0 0 0 0 0 0.29 0"/>
<feBlend mode="normal" in2="shape" result="effect1_innerShadow"/>
</filter>
<filter id="filter10_i" x="20.5" y="-2.5" width="19.5" height="16.5" filterUnits="userSpaceOnUse" color-interpolation-filters="sRGB">
<feFlood flood-opacity="0" result="BackgroundImageFix"/>
<feBlend mode="normal" in="SourceGraphic" in2="BackgroundImageFix" result="shape"/>
<feColorMatrix in="SourceAlpha" type="matrix" values="0 0 0 0 0 0 0 0 0 0 0 0 0 0 0 0 0 0 127 0" result="hardAlpha"/>
<feOffset dy="-4"/>
<feGaussianBlur stdDeviation="1.5"/>
<feComposite in2="hardAlpha" operator="arithmetic" k2="-1" k3="1"/>
<feColorMatrix type="matrix" values="0 0 0 0 0 0 0 0 0 0 0 0 0 0 0 0 0 0 0.3 0"/>
<feBlend mode="normal" in2="shape" result="effect1_innerShadow"/>
</filter>
<filter id="filter11_i" x="115.5" y="-2.5" width="19.5" height="16.5" filterUnits="userSpaceOnUse" color-interpolation-filters="sRGB">
<feFlood flood-opacity="0" result="BackgroundImageFix"/>
<feBlend mode="normal" in="SourceGraphic" in2="BackgroundImageFix" result="shape"/>
<feColorMatrix in="SourceAlpha" type="matrix" values="0 0 0 0 0 0 0 0 0 0 0 0 0 0 0 0 0 0 127 0" result="hardAlpha"/>
<feOffset dy="-4"/>
<feGaussianBlur stdDeviation="1.5"/>
<feComposite in2="hardAlpha" operator="arithmetic" k2="-1" k3="1"/>
<feColorMatrix type="matrix" values="0 0 0 0 0 0 0 0 0 0 0 0 0 0 0 0 0 0 0.3 0"/>
<feBlend mode="normal" in2="shape" result="effect1_innerShadow"/>
</filter>
<filter id="filter12_ii" x="114.5" y="45.5" width="33" height="220" filterUnits="userSpaceOnUse" color-interpolation-filters="sRGB">
<feFlood flood-opacity="0" result="BackgroundImageFix"/>
<feBlend mode="normal" in="SourceGraphic" in2="BackgroundImageFix" result="shape"/>
<feColorMatrix in="SourceAlpha" type="matrix" values="0 0 0 0 0 0 0 0 0 0 0 0 0 0 0 0 0 0 127 0" result="hardAlpha"/>
<feOffset dy="10"/>
<feGaussianBlur stdDeviation="3.5"/>
<feComposite in2="hardAlpha" operator="arithmetic" k2="-1" k3="1"/>
<feColorMatrix type="matrix" values="0 0 0 0 0 0 0 0 0 0 0 0 0 0 0 0 0 0 0.25 0"/>
<feBlend mode="normal" in2="shape" result="effect1_innerShadow"/>
<feColorMatrix in="SourceAlpha" type="matrix" values="0 0 0 0 0 0 0 0 0 0 0 0 0 0 0 0 0 0 127 0" result="hardAlpha"/>
<feOffset dy="-7"/>
<feGaussianBlur stdDeviation="3.5"/>
<feComposite in2="hardAlpha" operator="arithmetic" k2="-1" k3="1"/>
<feColorMatrix type="matrix" values="0 0 0 0 0 0 0 0 0 0 0 0 0 0 0 0 0 0 0.25 0"/>
<feBlend mode="normal" in2="effect1_innerShadow" result="effect2_innerShadow"/>
</filter>
<filter id="filter13_i" x="0.5" y="18" width="155" height="20.5" filterUnits="userSpaceOnUse" color-interpolation-filters="sRGB">
<feFlood flood-opacity="0" result="BackgroundImageFix"/>
<feBlend mode="normal" in="SourceGraphic" in2="BackgroundImageFix" result="shape"/>
<feColorMatrix in="SourceAlpha" type="matrix" values="0 0 0 0 0 0 0 0 0 0 0 0 0 0 0 0 0 0 127 0" result="hardAlpha"/>
<feOffset dy="-10"/>
<feGaussianBlur stdDeviation="1.5"/>
<feComposite in2="hardAlpha" operator="arithmetic" k2="-1" k3="1"/>
<feColorMatrix type="matrix" values="0 0 0 0 0 0 0 0 0 0 0 0 0 0 0 0 0 0 0.5 0"/>
<feBlend mode="normal" in2="shape" result="effect1_innerShadow"/>
</filter>
<filter id="filter14_i" x="18" y="10.5" width="119" height="10.5" filterUnits="userSpaceOnUse" color-interpolation-filters="sRGB">
<feFlood flood-opacity="0" result="BackgroundImageFix"/>
<feBlend mode="normal" in="SourceGraphic" in2="BackgroundImageFix" result="shape"/>
<feColorMatrix in="SourceAlpha" type="matrix" values="0 0 0 0 0 0 0 0 0 0 0 0 0 0 0 0 0 0 127 0" result="hardAlpha"/>
<feOffset dy="-3"/>
<feGaussianBlur stdDeviation="2"/>
<feComposite in2="hardAlpha" operator="arithmetic" k2="-1" k3="1"/>
<feColorMatrix type="matrix" values="0 0 0 0 0 0 0 0 0 0 0 0 0 0 0 0 0 0 0.7 0"/>
<feBlend mode="normal" in2="shape" result="effect1_innerShadow"/>
</filter>
<filter id="filter15_i" x="42.5" y="3.5" width="71" height="4" filterUnits="userSpaceOnUse" color-interpolation-filters="sRGB">
<feFlood flood-opacity="0" result="BackgroundImageFix"/>
<feBlend mode="normal" in="SourceGraphic" in2="BackgroundImageFix" result="shape"/>
<feColorMatrix in="SourceAlpha" type="matrix" values="0 0 0 0 0 0 0 0 0 0 0 0 0 0 0 0 0 0 127 0" result="hardAlpha"/>
<feOffset dy="-0.5"/>
<feGaussianBlur stdDeviation="0.5"/>
<feComposite in2="hardAlpha" operator="arithmetic" k2="-1" k3="1"/>
<feColorMatrix type="matrix" values="0 0 0 0 0 0 0 0 0 0 0 0 0 0 0 0 0 0 0.5 0"/>
<feBlend mode="normal" in2="shape" result="effect1_innerShadow"/>
</filter>
<filter id="filter16_ii" x="3" y="202" width="13" height="12" filterUnits="userSpaceOnUse" color-interpolation-filters="sRGB">
<feFlood flood-opacity="0" result="BackgroundImageFix"/>
<feBlend mode="normal" in="SourceGraphic" in2="BackgroundImageFix" result="shape"/>
<feColorMatrix in="SourceAlpha" type="matrix" values="0 0 0 0 0 0 0 0 0 0 0 0 0 0 0 0 0 0 127 0" result="hardAlpha"/>
<feOffset dy="-2"/>
<feGaussianBlur stdDeviation="1"/>
<feComposite in2="hardAlpha" operator="arithmetic" k2="-1" k3="1"/>
<feColorMatrix type="matrix" values="0 0 0 0 0 0 0 0 0 0 0 0 0 0 0 0 0 0 0.5 0"/>
<feBlend mode="normal" in2="shape" result="effect1_innerShadow"/>
<feColorMatrix in="SourceAlpha" type="matrix" values="0 0 0 0 0 0 0 0 0 0 0 0 0 0 0 0 0 0 127 0" result="hardAlpha"/>
<feOffset dy="2"/>
<feGaussianBlur stdDeviation="1"/>
<feComposite in2="hardAlpha" operator="arithmetic" k2="-1" k3="1"/>
<feColorMatrix type="matrix" values="0 0 0 0 0 0 0 0 0 0 0 0 0 0 0 0 0 0 0.5 0"/>
<feBlend mode="normal" in2="effect1_innerShadow" result="effect2_innerShadow"/>
</filter>
<filter id="filter17_ii" x="142" y="202" width="12" height="12" filterUnits="userSpaceOnUse" color-interpolation-filters="sRGB">
<feFlood flood-opacity="0" result="BackgroundImageFix"/>
<feBlend mode="normal" in="SourceGraphic" in2="BackgroundImageFix" result="shape"/>
<feColorMatrix in="SourceAlpha" type="matrix" values="0 0 0 0 0 0 0 0 0 0 0 0 0 0 0 0 0 0 127 0" result="hardAlpha"/>
<feOffset dy="-2"/>
<feGaussianBlur stdDeviation="1"/>
<feComposite in2="hardAlpha" operator="arithmetic" k2="-1" k3="1"/>
<feColorMatrix type="matrix" values="0 0 0 0 0 0 0 0 0 0 0 0 0 0 0 0 0 0 0.5 0"/>
<feBlend mode="normal" in2="shape" result="effect1_innerShadow"/>
<feColorMatrix in="SourceAlpha" type="matrix" values="0 0 0 0 0 0 0 0 0 0 0 0 0 0 0 0 0 0 127 0" result="hardAlpha"/>
<feOffset dy="2"/>
<feGaussianBlur stdDeviation="1"/>
<feComposite in2="hardAlpha" operator="arithmetic" k2="-1" k3="1"/>
<feColorMatrix type="matrix" values="0 0 0 0 0 0 0 0 0 0 0 0 0 0 0 0 0 0 0.5 0"/>
<feBlend mode="normal" in2="effect1_innerShadow" result="effect2_innerShadow"/>
</filter>
</defs>
</svg>
