<svg width="30" height="32" viewBox="0 0 30 32" fill="none" xmlns="http://www.w3.org/2000/svg">
<path d="M28.5 2.5H12V3.5H0.5V6.5H1.5V12.5H2.5V20.5H3.5V25.5H4.5V28.5H5.5V29.5H6.5V30.5H7.5V31.5H22.5V30.5H23.5V29.5H24.5V28.5H25.5V25.5H26.5V20.5H27.5V12.5H28.5V6.5H29.5V3.5H28.5V2.5Z" fill="#444444" stroke="#444444"/>
<path d="M8.5 10.5H10.5H23.5H25.5V22.5H24.5V27.5H23.5V28.5H22.5V29.5H20.5V30.5H11.5V29.5H10.5V27.5H9.5V25.5H8.5V22.5H7.5V15.5H6.5V13.5H7.5V11.5H8.5V10.5Z" fill="#646464"/>
<path d="M1 4.5H4M4 3.5H7M7 2.5H12M17 3.5H21M18 4.5H22M16 5.5H20M15 6.5H19M23.5 10.5H25.5V22.5H24.5V27.5H23.5V28.5H22.5V29.5H20.5V30.5H11.5V29.5H10.5V27.5H9.5V25.5H8.5V22.5H7.5V15.5H6.5V13.5H7.5V11.5H8.5V10.5H10.5H23.5ZM23.5 10.5V9" stroke="#646464"/>
<path d="M4.5 4.5V5.5H7.5V6.5H9.5V5.5H10.5V4.5H11.5V3.5H7.5V4.5H4.5Z" fill="#9B9B9B"/>
<path d="M19.5 10.5H16.5V12.5H15.5V19.5H14.5V20.5H15.5V27.5H16.5V29.5H18.5V27.5H19.5V23.5H20.5V12.5H19.5V10.5Z" fill="#9B9B9B"/>
<path d="M4.5 5.5V4.5H7.5V3.5H11.5V4.5H13H10.5V5.5H9.5V6.5H7.5V5.5H4.5ZM16.5 10.5H19.5V12.5H20.5V23.5H19.5V27.5H18.5V29.5H16.5V27.5H15.5V20.5H14.5V19.5H15.5V12.5H16.5V10.5Z" stroke="#9B9B9B"/>
<path d="M17.5 13V17M18.5 13V16M0.5 3V5M1 5.5H4M4 6.5H7M7 7.5H23M23 6.5H26M26 5.5H29M29.5 5V3M29 2.5H26M26 1.5H23M23 0.5H7M7 1.5H4M4 2.5H1" stroke="#B4B4B4"/>
<path d="M11.5 10.5H15.5V11.5H14.5V18.5H13.5V21.5H14.5V28.5H15.5V29.5H14.5V28.5H12.5V24.5H11.5V21.5H10.5V11.5H11.5V10.5Z" fill="#888888"/>
<path d="M20.5 11.5V10.5H21.5V11.5H22.5V13.5H23.5V18.5H22.5V25.5H21.5V27.5H20.5V28.5V29.5H19.5V28.5H20.5V27.5V24.5H21.5V11.5H20.5Z" fill="#888888"/>
<path d="M1 3.5H4M4 2.5H7M7 1.5H23M23 2.5H26M26 3.5H29M29 5.5H30M26 6.5H29M23 7.5H26M0 5.5H1M1 6.5H4M4 7.5H7M7 8.5H23M12 3.5H17M13 4.5H18M11 5.5H16M10 6.5H15M14.5 28.5V21.5H13.5V18.5H14.5V11.5H15.5V10.5H11.5V11.5H10.5V21.5H11.5V24.5H12.5V28.5H14.5ZM14.5 28.5H15.5V29.5H14.5V28.5ZM21.5 11.5H20.5V10.5H21.5V11.5ZM21.5 11.5V24.5H20.5V27.5M21.5 11.5H22.5V13.5H23.5V18.5H22.5V25.5H21.5V27.5H20.5M20.5 27.5V28.5H19.5V29.5H20.5V27.5Z" stroke="#888888"/>
</svg>
