<svg width="23" height="22" viewBox="0 0 23 22" fill="none" xmlns="http://www.w3.org/2000/svg">
<path d="M0.5 8.5V4.5H1.5V2.5H2.5V1.5H4.5V0.5H8.5V1.5H9.5V2.5H10.5V3.5H12.5V2.5H13.5V1.5H14.5V0.5H18.5V1.5H20.5V2.5H21.5V4.5H22.5V8.5H21.5V10.5H20.5V12.5H19.5V13.5H18.5V14.5H17.5V15.5H16.5V16.5H15.5V17.5H14.5V18.5H13.5V19.5H12.5V20.5H11.5H10.5V19.5H9.5V18.5H8.5V17.5H7.5V16.5H6.5V15.5H5.5V14.5H4.5V13.5H3.5V12.5H2.5V10.5H1.5V8.5H0.5Z" fill="#FF0000"/>
<path d="M11.5 20.5H10.5V19.5H9.5V18.5H8.5V17.5H7.5V16.5H6.5V15.5H5.5V14.5H4.5V13.5H3.5V12.5H2.5V10.5H1.5V8.5H0.5V4.5H1.5V2.5H2.5V1.5H4.5V0.5H8.5V1.5H9.5V2.5H10.5V3.5H12.5V2.5H13.5V1.5H14.5V0.5H18.5V1.5H20.5V2.5H21.5V4.5H22.5V8.5H21.5V10.5H20.5V12.5H19.5V13.5H18.5V14.5H17.5V15.5H16.5V16.5H15.5V17.5H14.5V18.5H13.5V19.5H12.5V20.5H11.5ZM11.5 20.5V22" stroke="#FF0000"/>
<path d="M16 3.5H17.5M17.5 3.5V2M17.5 3.5H18.5V4.5H19.5V5.5H18.5M17.5 3.5V5.5H18.5M18.5 5.5V7" stroke="#FF6262"/>
</svg>
