<svg width="16" height="29" viewBox="0 0 16 29" fill="none" xmlns="http://www.w3.org/2000/svg">
<path d="M5 6.5H3.5V5.5H1.5M1.5 5.5H0.5V4.5M1.5 5.5V4.5H0.5M0.5 4.5V3.5V3" stroke="#367840"/>
<rect x="1" y="2" width="1" height="1" fill="#367840"/>
<rect x="14" y="5" width="1" height="1" fill="#367840"/>
<rect x="15" y="4" width="1" height="1" fill="#367840"/>
<rect x="2" y="25" width="2" height="1" fill="#367840"/>
<rect x="4" y="26" width="1" height="1" fill="#367840"/>
<rect x="5" y="27" width="2" height="1" fill="#367840"/>
<rect x="7" y="28" width="2" height="1" fill="#367840"/>
<rect x="10" y="28" width="1" height="1" fill="#367840"/>
<path d="M2.5 2.5V3.5V4.5H4.5V5.5H5.5V6.5H6.5V7.5H10.5V6.5H11.5V5.5H13.5V4.5H14.5V3.5H5.5V2.5H2.5Z" fill="#CE1C18"/>
<path d="M2.5 3.5H1.5H1M2.5 3.5V2.5H5.5V3.5H14.5V4.5H13.5V5.5H11.5V6.5H10.5V7.5H6.5V6.5H5.5V5.5H4.5V4.5H2.5V3.5Z" stroke="#CE1C18"/>
<rect x="9" y="28" width="1" height="1" fill="#CE1C18"/>
<rect x="11" y="27" width="2" height="1" fill="#CE1C18"/>
<rect x="13" y="26" width="1" height="1" fill="#CE1C18"/>
<rect x="14" y="25" width="1" height="1" fill="#CE1C18"/>
<rect x="6" y="4" width="1" height="1" fill="#E05427"/>
<rect x="7" y="5" width="4" height="2" fill="#E05427"/>
<rect x="11" y="4" width="1" height="1" fill="#E05427"/>
<path d="M8.5 5V0.5H10" stroke="#513018"/>
<path d="M3.5 8.5V7.5H5.5V8.5H11.5V7.5H12.5V10.5H11.5V19.5H12.5V24.5H13.5V25.5H12.5V26.5H10.5V27.5H7.5V26.5H5.5V25.5H4.5V24.5H3.5V22.5H4.5V20.5H5.5V18.5H6.5V12.5H5.5V10.5H4.5V8.5H3.5Z" fill="#EBD06A"/>
<path d="M1 6.5H2.5V7.5H3.5M3.5 7.5V8.5H4.5V10.5H5.5V12.5H6.5V18.5H5.5V20.5H4.5V22.5H3.5V24.5M3.5 7.5H5.5V8.5H11.5V7.5H12.5M3.5 24.5H2.5M3.5 24.5H4.5V25.5H5.5V26.5H7.5V27.5H10.5V26.5H12.5V25.5H13.5V24.5H12.5V19.5H11.5V10.5H12.5V7.5M12.5 6V7.5" stroke="#EBD06A"/>
<path d="M12 7.5H13.5V6M8.5 13V14.5M7.5 16.5H8.5V14.5M7.5 16.5V19M7.5 16.5H9.5V21V15.5H10.5V14.5H8.5" stroke="#D4B847"/>
<rect x="7" y="15" width="1" height="1" fill="#312822"/>
<rect x="9" y="15" width="1" height="1" fill="#312822"/>
<rect x="8" y="17" width="1" height="1" fill="#312822"/>
<rect x="10" y="17" width="1" height="1" fill="#312822"/>
<rect x="7" y="14" width="1" height="1" fill="#654E3E"/>
<rect x="10" y="18" width="1" height="1" fill="#654E3E"/>
<rect x="8" y="18" width="1" height="1" fill="#654E3E"/>
<rect x="9" y="14" width="1" height="1" fill="#654E3E"/>
<path d="M5.5 8.5H4.5V7.5H3.5V8.5H5.5ZM5.5 8.5V10" stroke="#D4B847"/>
<rect x="2" y="6" width="1" height="1" fill="#D4B847"/>
<rect x="6" y="10" width="1" height="1" fill="#D4B847"/>
<rect x="10" y="11" width="1" height="2" fill="#D4B847"/>
<path d="M7 9.5H8.5M8.5 9.5V11M8.5 9.5H10.5M10.5 9.5H11.5V8.5H10.5V9.5Z" stroke="#D4B847"/>
<path d="M5.5 24.5V23.5V22.5H6.5V20.5H7.5V24.5H5.5Z" fill="#D4B847"/>
<path d="M4 23.5H5.5M5.5 23.5V24.5H7.5M5.5 23.5V22.5H6.5V20.5H7.5V24.5M7.5 24.5V26.5M7.5 26.5H8.5M7.5 26.5H10H8.5M8.5 26.5V28M9.5 22V25M11.5 24V25.5M11.5 27V25.5M11.5 25.5H14" stroke="#D4B847"/>
</svg>
