<svg width="25" height="31" viewBox="0 0 25 31" fill="none" xmlns="http://www.w3.org/2000/svg">
<path d="M1.5 22.5V4.5H2.5V2.5H3.5V1.5H4.5V0.5H6.5V1.5H7.5V10.5H12.5V9.5H13.5V7.5H14.5V4.5H15.5V2.5H16.5V1.5H18.5V2.5H19.5V11.5H20.5V14.5H22.5V15.5H23.5V19.5H22.5V23.5H23.5V25.5H24.5V26.5H23.5V27.5H15.5V28.5H11.5V29.5H8.5V30.5H7.5V29.5H6.5V28.5H5.5V25.5H4.5V23.5H2.5V22.5H1.5Z" fill="#D0D0D0" stroke="#D0D0D0"/>
<path d="M0.5 20.5V16.5H1.5V17.5H4.5V18.5H6.5V22.5H5.5V21.5H1.5V20.5H0.5Z" fill="#BCBCBC"/>
<path d="M4.5 13.5V12.5H5.5V13.5H4.5Z" fill="#BCBCBC"/>
<path d="M13.5 12.5H12.5V13.5H13.5V12.5Z" fill="#BCBCBC"/>
<path d="M23.5 16.5H22.5V15.5H23.5V16.5Z" fill="#BCBCBC"/>
<path d="M12.5 26.5H16.5V24.5H18.5V25.5H19.5V22.5H17.5V21.5H16.5V22.5H15.5V23.5H14.5V24.5H13.5V25.5H10.5V27.5H9.5V28.5V29.5H11.5V28.5H12.5V26.5Z" fill="#BCBCBC"/>
<path d="M1.5 23V21.5M1.5 21.5V20.5H0.5V16.5H1.5M1.5 21.5H5.5V22.5H6.5V18.5H4.5V17.5H1.5V16.5M1.5 15V16.5M4.5 3V4M3.5 4V12.5H4.5M4.5 12.5V13.5H5.5V15V12.5H4.5ZM4.5 12.5V10M16.5 5V7M15.5 7V10M16.5 10V11M9 11.5H12.5V12.5M12.5 12.5H13.5V13.5M12.5 12.5V13.5H13.5M12.5 12.5H10M13.5 13.5H17M16 18.5H13.5V19.5H15M16 17.5H22.5V16.5M22.5 16.5H23.5V15.5H22.5V14.5M22.5 16.5V14.5M22.5 16.5H18M22.5 14.5H21M24 27.5H16.5V26.5M16.5 26.5H12.5V28.5M16.5 26.5V24.5H18.5V25.5H21H19.5V22.5H17.5V21.5H16.5V22.5H15.5V23.5H14.5V24.5H13.5V25.5H10.5V27.5H9.5V28.5M12.5 28.5H14M12.5 28.5H11.5V29.5H9.5V28.5M9.5 28.5H8" stroke="#BCBCBC"/>
<path d="M6.5 1.5V0.5H4.5V1.5H6.5ZM6.5 1.5H7.5V10.5H6.5V1.5ZM16 1.5H18.5V2.5M18.5 2.5H19.5V9.5M18.5 2.5V9.5H19.5M18.5 2.5H17M19.5 11V9.5M8 11.5H9M9 12.5H10M10 13.5H12M12 14.5H17M17 13.5H20M14 22.5H12M12 23.5H10.5V24.5H9.5M8.5 26V24.5H9.5M9.5 24.5V22.5H10.5V18.5M10.5 17.5H9.5V16.5M10.5 17.5V16.5H9.5M10.5 17.5V18.5M9.5 15V16.5M10.5 18.5H11.5V17.5H13.5V16.5H15H12M24.5 17V19M24 19.5H23M21.5 19V23M22.5 20V25M23.5 23V25.5H25" stroke="#DFDFDF"/>
</svg>
