<svg width="12" height="28" viewBox="0 0 12 28" fill="none" xmlns="http://www.w3.org/2000/svg">
<path d="M8.5 3.5H3.5V4.5H2.5V6.5V16.5H1.5V22.5H2.5V25.5H3.5V26.5H10.5V25.5H11.5V17.5H10.5V16.5H9.5V13.5H10.5V12.5H11.5V8.5H10.5V6.5H9.5V4.5H8.5V3.5Z" fill="#9CD3DD"/>
<path d="M2.5 6.5V16.5H1.5V22.5H2.5V25.5H3.5V26.5H10.5V25.5H11.5V17.5H10.5V16.5H9.5V13.5H10.5V12.5H11.5V8.5H10.5V6.5H9.5V4.5H8.5V3.5H3.5V4.5H2.5V6.5ZM2.5 6.5H1" stroke="#9CD3DD"/>
<path d="M2.5 13.5H1.5V12.5H0.5V8.5H1.5M2.5 13.5V14.5H5.5M2.5 13.5H5.5V14.5M2.5 13.5V11.5H1.5V8.5M9 14.5H5.5M1.5 7V8.5M0.5 17V23.5M1.5 25.5H0.5V23.5M1.5 25.5V26.5H2.5V27.5H10M1.5 25.5V23.5H0.5" stroke="#76A8B0"/>
<rect x="4" width="4" height="2" fill="#536279"/>
<rect x="4" y="2" width="4" height="1" fill="#3D4958"/>
<path d="M7.5 4.5H5.5V5.5H4.5V6.5H5.5V10.5H6.5V11.5H7.5H8.5V5.5H7.5V4.5Z" fill="#C6E7F6"/>
<path d="M7.5 16.5H5.5V17.5H4.5V22.5H5.5V23.5H6.5V24.5H8.5V21.5H9.5V17.5H7.5V16.5Z" fill="#C6E7F6"/>
<path d="M7.5 11.5H8.5V5.5H7.5V4.5H5.5V5.5H4.5V6.5H5.5V10.5H6.5V11.5H7.5ZM7.5 11.5V13M5.5 16.5H7.5V17.5H9.5V21.5H8.5V24.5H6.5V23.5H5.5V22.5H4.5V17.5H5.5V16.5Z" stroke="#C6E7F6"/>
</svg>
