<svg width="10" height="27" viewBox="0 0 10 27" fill="none" xmlns="http://www.w3.org/2000/svg">
<rect x="3" width="4" height="2" fill="#960300"/>
<path d="M6.5 2.5H4.5V8.5H3.5V13.5H7.5V12.5H8.5V9.5H7.5V6.5H6.5V2.5Z" fill="#764417"/>
<path d="M4.5 25.5V24.5H5.5V25.5H4.5Z" fill="#764417"/>
<path d="M3 24.5H4.5M4.5 24.5V25.5H5.5M4.5 24.5H5.5V25.5M8.5 23V25.5H5.5M4.5 2.5H6.5V6.5H7.5V9.5H8.5V12.5H7.5V13.5H3.5V8.5H4.5V2.5Z" stroke="#764417"/>
<path d="M3.5 2V7.5H2.5V6V12.5M2.5 14V12.5M2.5 12.5H1.5V11.5M1.5 11.5H0.5V9.5H1.5M1.5 11.5V9.5M1.5 9.5V8M0.5 22V23.5M9 26.5H3.5M3.5 26.5H1.5V25.5H0.5V23.5M3.5 26.5V25.5H2.5V24.5H1.5V23.5H0.5M9.5 26V22M9.5 12V9M8.5 9V8" stroke="#513014"/>
<path d="M5.5 3V7.5H6.5V9.5M6.5 9.5V13.5H7.5V9.5H6.5ZM6 24.5H8" stroke="#9E7D5D"/>
<path d="M0.5 12V13.5M0.5 13.5V21.5H1.5V23V13.5H0.5ZM9.5 12V22" stroke="#10350F"/>
<path d="M2.5 23.5V14.5H8.5V22.5H7.5V23.5H2.5Z" fill="#0F440D"/>
<path d="M8.5 13V14.5M8.5 14.5V22.5H7.5V23.5H2.5V14.5H8.5Z" stroke="#0F440D"/>
<path d="M6.5 23.5V14.5H7.5V23.5H6.5Z" stroke="#356933"/>
</svg>
