<svg width="20" height="19" viewBox="0 0 20 19" fill="none" xmlns="http://www.w3.org/2000/svg">
<path d="M1.5 17.5H0.5V16.5H1.5V17.5ZM1.5 17.5V19M1.5 17.5H3" stroke="#38322B"/>
<path d="M1 15.5H2.5V16.5H3.5V18M2.5 18V19" stroke="#0D0D0D"/>
<path d="M3 18.5H4M4 17.5H5M5 16.5H6M6 15.5H7M7 14.5H8" stroke="#B58049"/>
<path d="M3.5 15.5V14.5V13.5H4.5V12.5H6.5V13.5V14.5H5.5V15.5H4.5H3.5Z" fill="#FFA344"/>
<path d="M2 14.5H3.5M3.5 14.5V15.5H4.5M3.5 14.5V13.5H4.5V12.5H6.5V13.5M4.5 15.5V17M4.5 15.5H5.5V14.5H6.5V13.5M6.5 13.5H8" stroke="#FFA344"/>
<path d="M7.5 12.5V11.5H6.5V10.5H7.5V9.5H8.5V8.5H9.5V7.5H10.5V6.5H11.5V5.5H12.5V4.5H13.5V8.5H12.5V9.5H11.5V10.5H10.5V11.5H9.5V12.5H7.5Z" fill="#BFB9B9"/>
<path d="M5 11.5H6.5M6.5 11.5H7.5V12.5H9.5V11.5H10.5V10.5H11.5V9.5H12.5V8.5H13.5V4.5H12.5V5.5H11.5V6.5H10.5V7.5H9.5V8.5H8.5V9.5H7.5V10.5H6.5V11.5Z" stroke="#BFB9B9"/>
<path d="M8 13.5H9M9 12.5H10M10 11.5H11M11 10.5H12M12 9.5H13M13 8.5H14M14 7.5H15M15.5 7V5.5H16.5V4.5H18H15M13.5 3V4M15 1.5H16.5M16.5 1.5V3V0.5H18.5V1.5M16.5 1.5H18.5M18.5 1.5H19.5V2.5H18.5V4V1.5Z" stroke="#5D5D5D"/>
<path d="M8 12.5H9M9 11.5H10M10 10.5H11M11 9.5H12M12 8.5H13M10 7.5H12M13 7.5H14M12.5 7V5.5H14M14.5 5V3" stroke="#ABABAB"/>
<path d="M11 6.5H12M13 6.5H14.5V5M13.5 5V4M14 2.5H15.5V3.5H17.5V2" stroke="#767676"/>
</svg>
