<svg width="26" height="26" viewBox="0 0 26 26" fill="none" xmlns="http://www.w3.org/2000/svg">
<path d="M12.5 25.5H8.5V15.5H18.5V11.5H24.5V13.5H23.5V14.5H22.5V15.5H21.5V16.5H16.5V21.5H15.5V22.5H14.5V23.5H13.5V24.5H12.5V25.5Z" fill="#7601A6" stroke="#7601A6"/>
<path d="M7 25.5H9.5V24M11 25.5H13M19 13.5H20M20 12.5H21.5V11.5H23M24 11.5H25.5V13M24 13.5H25" stroke="#5D0183"/>
<path d="M1.5 16.5V17.5V20.5H4.5V23.5H5.5V24.5H7.5V23.5H8.5V22.5H9.5V21.5H10.5V20.5H17.5V13.5H18.5V6.5H11.5V7.5H10.5V14.5H3.5V15.5H2.5V16.5H1.5Z" fill="#AA26E2" stroke="#AA26E2"/>
<path d="M12.5 7V5.5H13.5M15 5.5H13.5M13.5 5.5V4M19.5 10V11.5M19.5 13V11.5M19.5 11.5H21M6.5 26V24.5H5.5V23.5H4.5V21.5H3.5M3.5 21.5V23M3.5 21.5H2.5V19.5H1.5M1.5 19.5V18.5H0.5V19.5H1.5ZM1.5 19.5V21" stroke="#8D10C1"/>
<path d="M5.5 12.5V13.5V14.5H6.5V15.5H7.5V16.5H8.5V17.5H9.5V18.5H10.5V19.5H11.5H12.5V18.5H13.5V17.5H14.5V16.5H15.5V15.5V14.5H14.5V13.5H13.5V12.5H12.5V11.5H11.5V10.5H10.5V9.5H9.5H8.5V10.5H7.5V11.5H6.5V12.5H5.5Z" fill="#E24E51"/>
<path d="M4 13.5H5.5M5.5 13.5V12.5H6.5V11.5H7.5V10.5H8.5V9.5H9.5M5.5 13.5V14.5H6.5V15.5H7.5V16.5H8.5V17.5H9.5V18.5H10.5V19.5H11.5M9.5 9.5V8M9.5 9.5H10.5V10.5H11.5V11.5H12.5V12.5H13.5V13.5H14.5V14.5H15.5V15.5M15.5 15.5H17M15.5 15.5V16.5H14.5V17.5H13.5V18.5H12.5V19.5H11.5M11.5 19.5V21" stroke="#E24E51"/>
<path d="M17.5 16.5V15.5H21.5V16.5H20.5V17.5H19.5V18.5H18.5V19.5H17.5V20.5H13.5V19.5H14.5V18.5H15.5V17.5H16.5V16.5H17.5Z" fill="#9E3738"/>
<path d="M23 15.5H21.5M21.5 15.5H17.5V16.5H16.5V17.5H15.5V18.5H14.5V19.5H13.5V20.5H12H17.5V19.5H18.5V18.5H19.5V17.5H20.5V16.5H21.5V15.5Z" stroke="#9E3738"/>
<path d="M7 13.5H8M8 14.5H9M9 15.5H10M10 16.5H11M11 17.5H12M8 12.5H9M9 13.5H10M10 14.5H11M11 15.5H12M12 16.5H13" stroke="#B2B2B2"/>
<path d="M16.5 6.5V3.5H19.5V4.5H20.5V6.5H22.5V7.5H23.5V9.5H24.5V10.5H20.5V9.5H19.5V8.5H18.5V7.5H17.5V6.5H16.5Z" fill="#CE88EC" stroke="#CE88EC"/>
<path d="M15.5 6V4.5M15.5 4.5V3.5H14.5V4.5H15.5ZM18 3.5H20M20.5 9V10.5H23M24 10.5H26" stroke="#C96FEE"/>
<path d="M20 6.5H21M21 5.5H22M22 4.5H23M23.5 4V2M22 1.5H23M21 0.5H22" stroke="#D8D8D8"/>
<path d="M21 1.5H22M22 2.5H23M23 4.5H24M22 5.5H23M21 6.5H22" stroke="#C4C4C4"/>
</svg>
