<svg width="27" height="26" viewBox="0 0 27 26" fill="none" xmlns="http://www.w3.org/2000/svg">
<path d="M4.5 24.5H0.5V18.5H1.5V17.5H2.5V19.5H3.5V20.5H4.5V24.5Z" fill="#B9B9B9"/>
<path d="M19.5 2.5V7.5H23.5V4.5H21.5V2.5H19.5Z" fill="#B9B9B9"/>
<path d="M5.5 14V16M6.5 16V18M8.5 12V14M11.5 8V11M10.5 7V8M15.5 7V8M6 19.5H7.5V18M8 20.5H10M10 21.5H11M8.5 18V17M9.5 14V16.5H11M11 17.5H12.5V18.5H15M15 19.5H16M12.5 11V14.5H11.5V16M13 13.5H14M14 14.5H15.5V15.5H17M17 16.5H18M14 12.5H15M15 11.5H16M16.5 8V10.5H17.5V9M18 11.5H20M20 12.5H21M18.5 9V7.5H19.5M19.5 7.5V2.5H21.5V4.5H23.5V7.5H19.5ZM0.5 24.5H4.5V20.5H3.5V19.5H2.5V17.5H1.5V16V18.5H0.5V24.5Z" stroke="#B9B9B9"/>
<path d="M1.5 20V23.5H3M2 21.5H3M19.5 7V6M20.5 6V4" stroke="#DDDDDD"/>
<path d="M7.5 22.5H5.5V24.5H3.5V25.5H6.5V24.5H8.5V23.5H7.5V22.5Z" fill="#8A8A8A"/>
<path d="M4 20.5H5.5V22.5M5.5 22.5H7.5V23.5H8.5V24.5H10H6.5V25.5H3.5M5.5 22.5V24.5H3.5V25.5M1 25.5H3.5M5.5 12V14M8.5 9V12M10.5 6V7M15.5 5V7M11 21.5H15M16 19.5H17M18 16.5H20M21 12.5H22M27 8.5H23.5V7.5H20H24.5M26 7.5H24.5M24.5 7.5V6.5H22.5V5M23.5 5V4M22.5 4V3M19.5 4V1.5H20.5V0" stroke="#8A8A8A"/>
</svg>
