<svg width="22" height="29" viewBox="0 0 22 29" fill="none" xmlns="http://www.w3.org/2000/svg">
<path d="M3.5 27.5V26.5V14.5H10.5V0.5H13.5V1.5H16.5V2.5H18.5V3.5H20.5V6.5H21.5V10.5H20.5V14.5H19.5V17.5H18.5V19.5H17.5V21.5H16.5V23.5H15.5V24.5H14.5V25.5H13.5V26.5H12.5V27.5H11.5V28.5H7.5V27.5H3.5Z" fill="#505050" stroke="#505050"/>
<path d="M1.5 26.5H2.5V25.5H3.5V24.5H4.5V23.5H5.5V22.5H6.5V20.5H7.5V18.5H8.5V17.5H9.5V14.5H10.5V11.5H11.5V8.5H12.5V4.5H13.5V1.5H12.5V0.5H10.5V1.5H9.5V2.5H8.5V3.5H7.5V5.5H6.5V7.5H5.5V9.5H4.5V11.5H3.5V13.5H2.5V16.5H1.5V20.5H0.5V25.5H1.5V26.5Z" fill="#353535"/>
<path d="M15.5 1V8M14.5 8V12M13.5 12V14M12.5 14V17M11.5 17V19M10.5 19V20.5H9.5V22M8.5 22V24M7.5 24V25M6.5 25V26M5.5 26V27M3 27.5H5M9 28.5H10M10 27.5H11M11.5 27V25.5H12.5V24.5H13.5V23M14 22.5H15M15.5 22V20M16.5 20V18M17.5 18V14.5H18.5V12M19.5 12V2M2.5 26.5H1.5V25.5H0.5V20.5H1.5V16.5H2.5V13.5H3.5V11.5H4.5V9.5H5.5V7.5H6.5V5.5H7.5V3.5H8.5V2.5H9.5V1.5H10.5V0.5H12.5V1.5H13.5V4.5H12.5V8.5H11.5V11.5H10.5V14.5H9.5V17.5H8.5V18.5H7.5V20.5H6.5V22.5H5.5V23.5H4.5V24.5H3.5V25.5H2.5V26.5Z" stroke="#353535"/>
<path d="M8.5 6.5H9.5V9.5H8.5V12.5H7.5V15.5H6.5V17.5H5.5V18.5H4.5V20.5H3.5V22.5H2.5V20.5H3.5V17.5H4.5V14.5H5.5V12.5H6.5V10.5H7.5V8.5H8.5V6.5Z" fill="black"/>
<path d="M10.5 6V4.5H9.5V6.5M9.5 6.5H8.5V8.5H7.5V10.5H6.5V12.5H5.5V14.5H4.5V17.5H3.5V20.5M9.5 6.5V9.5H8.5V12.5H7.5V15.5H6.5V17.5H5.5V18.5H4.5V20.5H3.5M3.5 20.5H2.5V22.5H3.5V20.5Z" stroke="black"/>
</svg>
