<svg width="27" height="24" viewBox="0 0 27 24" fill="none" xmlns="http://www.w3.org/2000/svg">
<path d="M0 11.5H1.5M1.5 11.5V12.5H2.5V13.5H3.5M1.5 11.5V10.5H2.5V11.5H3.5V12.5H4.5V13.5H3.5M3.5 13.5V15" stroke="#4B300D"/>
<path d="M5.5 15.5V14.5V13.5H9.5V12.5H11.5V11.5H13.5V10.5H14.5V9.5H15.5V8.5H16.5V7.5H17.5V4.5H18.5V2.5H19.5V8.5H18.5V11.5H17.5V13.5H15.5V14.5H14.5V16.5H6.5V15.5H5.5Z" fill="#E2C832"/>
<path d="M4 14.5H5.5M5.5 14.5V15.5H6.5V16.5H14.5V14.5H15.5V13.5H17.5V11.5H18.5V8.5H19.5V2.5H18.5V0V4.5H17.5V7.5H16.5V8.5H15.5V9.5H14.5V10.5H13.5V11.5H11.5V12.5H9.5V13.5H5.5V14.5Z" stroke="#E2C832"/>
<path d="M7 17.5H10M10 16.5H11" stroke="#F0DD76"/>
<path d="M10.5 18.5V17.5H11.5V18.5H12.5V19.5H23.5V18.5H25.5V17.5H26.5V18.5H25.5V20.5H23.5V21.5H21.5V22.5H13.5V21.5H11.5V19.5H10V18.5H10.5Z" fill="#C6B038"/>
<path d="M5 13.5H6M5 16.5H7M8 16.5H9M9 15.5H10M12 14.5H13M15 10.5H16M14 14.5H16M16 13.5H17.5V11.5H18.5V9M19.5 9V5M8 18.5H10M25.5 18.5H23.5V19.5H12.5V18.5H11.5V17.5H10.5V18.5H10M25.5 18.5V17.5H26.5V16V18.5H25.5ZM25.5 18.5V20.5H23.5V21.5H21.5V22.5H13.5V21.5H11.5V19.5H10V18.5" stroke="#C6B038"/>
<path d="M4 15.5H5M6 17.5H7M7 18.5H8M8 19.5H10M10 18.5H11M9 20.5H10.5V21.5H12.5V20V22.5H14.5M14.5 22.5V21M14.5 22.5H15.5V23.5H14H17.5M20 23.5H17.5M17.5 23.5V22M19 21.5H20M20 20.5H21M23 19.5H24" stroke="#AB8D3F"/>
<path d="M11 16.5H13.5V17.5M13.5 17.5H15.5V18.5M13.5 17.5V18.5H15.5M13.5 17.5H12M15.5 18.5H17M16 16.5H17M19 13.5H20M18.5 18V16.5H21M21.5 16V14.5H22.5V13.5H24" stroke="#8F7941"/>
<path d="M14 16.5H15.5V15.5H17.5V17.5H16M17 14.5H20.5V15.5H18M20.5 12V13.5H21.5V11.5H23.5V12.5H22.5V9M23.5 11V6" stroke="#AB8D3F"/>
</svg>
